# Blender 3.6.2
# www.blender.org
mtllib Flame_Chalice.mtl
o Cube.003
v -0.341003 0.315615 0.421721
v -0.421721 0.315615 0.341003
v -0.421721 0.315615 -0.341003
v -0.341003 0.315615 -0.421721
v 0.341003 0.315615 -0.421721
v 0.421721 0.315615 -0.341003
v 0.421721 0.315615 0.341003
v 0.341003 0.315615 0.421721
v -0.726079 0.438316 0.897948
v -0.897948 0.438316 0.726079
v -0.897948 0.438316 -0.726079
v -0.726079 0.438316 -0.897948
v 0.726079 0.438316 -0.897948
v 0.897948 0.438316 -0.726079
v 0.897948 0.438316 0.726079
v 0.726079 0.438316 0.897948
v -1.092141 0.999839 1.350662
v -1.350662 0.999839 1.092141
v -1.350662 0.999839 -1.092141
v -1.092141 0.999839 -1.350662
v 1.092141 0.999839 -1.350662
v 1.350662 0.999839 -1.092141
v 1.350662 0.999839 1.092141
v 1.092141 0.999839 1.350662
v -0.306198 0.326690 0.329056
v -0.329056 0.326690 0.306198
v -0.329056 0.326690 -0.306198
v -0.306198 0.326690 -0.329056
v 0.306198 0.326690 -0.329056
v 0.329056 0.326690 -0.306198
v 0.329056 0.326690 0.306198
v 0.306198 0.326690 0.329056
v -0.666778 0.441749 0.757812
v -0.757812 0.441749 0.666778
v -0.757812 0.441749 -0.666778
v -0.666778 0.441749 -0.757812
v 0.666778 0.441749 -0.757812
v 0.757812 0.441749 -0.666778
v 0.757812 0.441749 0.666778
v 0.666778 0.441749 0.757812
v -1.031490 1.001130 1.206803
v -1.206803 1.001130 1.031490
v -1.206803 1.001130 -1.031490
v -1.031490 1.001130 -1.206803
v 1.031490 1.001130 -1.206803
v 1.206803 1.001130 -1.031490
v 1.206803 1.001130 1.031490
v 1.031490 1.001130 1.206803
v -0.759794 -0.010360 1.356775
v -1.356775 -0.010360 0.759794
v -0.418526 0.236854 0.338419
v -0.338419 0.236854 0.418526
v -1.356775 -0.010360 -0.759794
v -0.759794 -0.010360 -1.356775
v -0.338419 0.236854 -0.418526
v -0.418526 0.236854 -0.338419
v 1.356775 -0.010360 0.759794
v 0.759794 -0.010360 1.356775
v 0.338419 0.236854 0.418526
v 0.418526 0.236854 0.338419
v 0.759794 -0.010360 -1.356775
v 1.356775 -0.010360 -0.759794
v 0.418526 0.236854 -0.338419
v 0.338419 0.236854 -0.418526
v -0.759794 0.236854 1.356775
v -1.356775 0.236854 0.759794
v -1.356775 0.236854 -0.759794
v -0.759794 0.236854 -1.356775
v 0.759794 0.236854 -1.356775
v 1.356775 0.236854 -0.759794
v 1.356775 0.236854 0.759794
v 0.759794 0.236854 1.356775
vn 0.2495 -0.9684 -0.0000
vn -0.4923 -0.7178 -0.4923
vn -0.2495 -0.9684 -0.0000
vn 0.1397 -0.9803 -0.1397
vn -0.1397 -0.9803 0.1397
vn -0.0000 -0.9684 -0.2495
vn -0.0000 -0.9684 0.2495
vn 0.1397 -0.9803 0.1397
vn -0.1397 -0.9803 -0.1397
vn 0.7785 -0.6276 -0.0000
vn -0.7785 -0.6276 -0.0000
vn 0.4923 -0.7178 -0.4923
vn -0.4923 -0.7178 0.4923
vn -0.0000 -0.6276 -0.7785
vn -0.0000 -0.6276 0.7785
vn 0.4923 -0.7178 0.4923
vn -0.2592 0.9658 -0.0000
vn 0.4929 0.7170 0.4929
vn 0.2592 0.9658 -0.0000
vn -0.1428 0.9794 0.1428
vn 0.1428 0.9794 -0.1428
vn -0.0000 0.9658 0.2592
vn -0.0000 0.9658 -0.2592
vn -0.1428 0.9794 -0.1428
vn 0.1428 0.9794 0.1428
vn -0.7799 0.6260 -0.0000
vn 0.7799 0.6260 -0.0000
vn -0.4929 0.7170 0.4929
vn 0.4929 0.7170 -0.4929
vn -0.0000 0.6260 0.7799
vn -0.0000 0.6260 -0.7799
vn -0.4929 0.7170 -0.4929
vn -0.0000 1.0000 -0.0000
vn -0.0063 1.0000 0.0063
vn -0.0063 1.0000 -0.0063
vn 0.0063 1.0000 -0.0063
vn 0.0063 1.0000 0.0063
vn -0.0090 1.0000 -0.0000
vn -0.0000 1.0000 0.0090
vn 0.0090 1.0000 -0.0000
vn -0.0000 1.0000 -0.0090
vn -0.0000 -0.0000 1.0000
vn 1.0000 -0.0000 -0.0000
vn -0.7062 -0.0518 0.7062
vn -1.0000 -0.0000 -0.0000
vn -0.0000 -0.0000 -1.0000
vn -0.7071 -0.0000 0.7071
vn -0.7071 -0.0000 -0.7071
vn 0.7071 -0.0000 -0.7071
vn 0.7071 -0.0000 0.7071
vn -0.0000 -1.0000 -0.0000
vn -0.0000 -0.0405 -0.9992
vn -0.0000 -0.0405 0.9992
vn 0.7062 -0.0518 0.7062
vn -0.7062 -0.0518 -0.7062
vn 0.9992 -0.0405 -0.0000
vn -0.9992 -0.0405 -0.0000
vn 0.7062 -0.0518 -0.7062
vt 0.980240 0.428834
vt 0.978306 0.531597
vt 0.849233 0.529169
vt 0.851166 0.426406
vt 0.856446 0.145784
vt 0.855975 0.170816
vt 0.688825 0.167671
vt 0.689296 0.142639
vt 0.985048 0.173245
vt 0.983115 0.276008
vt 0.854041 0.273579
vt 0.977835 0.556629
vt 0.848762 0.554201
vt 0.982644 0.301039
vt 0.853571 0.298611
vt 0.987453 0.045450
vt 0.985519 0.148213
vt 0.858379 0.043021
vt 0.980711 0.403802
vt 0.851637 0.401374
vt 0.682083 0.526024
vt 0.684016 0.423261
vt 0.686891 0.270434
vt 0.681612 0.551056
vt 0.686420 0.295466
vt 0.691229 0.039876
vt 0.684487 0.398229
vt 0.171753 0.440603
vt 0.134468 0.398242
vt 0.266638 0.393362
vt 0.231621 0.438058
vt 0.281201 0.534490
vt 0.351760 0.597597
vt 0.327641 0.619836
vt 0.271704 0.544061
vt 0.234477 0.501845
vt 0.139756 0.549131
vt 0.174726 0.504407
vt 0.276230 0.402870
vt 0.234022 0.440243
vt 0.130155 0.539637
vt 0.172325 0.502225
vt 0.236661 0.499465
vt 0.124943 0.407824
vt 0.169534 0.442983
vt 0.078467 0.322285
vt 0.329808 0.322722
vt 0.076665 0.619836
vt 0.352062 0.346878
vt 0.054376 0.595714
vt 0.054274 0.344565
vt 0.121433 0.689788
vt 0.056691 0.689788
vt 0.054274 0.687372
vt 0.054274 0.622629
vt 0.056691 0.620213
vt 0.121433 0.620213
vt 0.123850 0.622629
vt 0.123850 0.687372
vt 0.349267 0.276975
vt 0.321936 0.304306
vt 0.315523 0.289096
vt 0.334057 0.270562
vt 0.321935 0.018721
vt 0.349266 0.046052
vt 0.334057 0.052464
vt 0.315523 0.033930
vt 0.063682 0.046052
vt 0.091013 0.018721
vt 0.097425 0.033930
vt 0.078891 0.052464
vt 0.091013 0.304305
vt 0.063682 0.276974
vt 0.078891 0.270562
vt 0.097425 0.289096
vt 0.000189 0.339349
vt 0.026324 0.339349
vt 0.026324 0.500000
vt 0.000189 0.500000
vt 0.000189 0.089443
vt 0.026324 0.089443
vt 0.026324 0.250094
vt 0.000189 0.250094
vt 0.216894 0.706205
vt 0.234324 0.706205
vt 0.234324 0.714543
vt 0.216894 0.714543
vt 0.000189 0.589255
vt 0.026324 0.589255
vt 0.026324 0.749906
vt 0.000189 0.749906
vt 0.000189 0.839161
vt 0.026324 0.839161
vt 0.026324 0.999812
vt 0.000189 0.999812
vt 0.000189 0.000189
vt 0.026324 0.000189
vt 0.659858 0.525685
vt 0.596745 0.588798
vt 0.436095 0.588798
vt 0.372982 0.525685
vt 0.372982 0.365034
vt 0.436095 0.301922
vt 0.596745 0.301921
vt 0.659858 0.365034
vt 0.552198 0.202353
vt 0.560666 0.193884
vt 0.659858 0.238432
vt 0.596745 0.301544
vt 0.560666 0.122329
vt 0.552198 0.113860
vt 0.596745 0.014668
vt 0.659858 0.077781
vt 0.480642 0.113860
vt 0.472173 0.122329
vt 0.372982 0.077781
vt 0.436095 0.014668
vt 0.472173 0.193884
vt 0.480642 0.202353
vt 0.436095 0.301544
vt 0.372982 0.238432
vt 0.480642 0.113860
vt 0.436095 0.014668
vt 0.056353 0.706205
vt 0.127908 0.706205
vt 0.127908 0.714543
vt 0.056353 0.714543
vt 0.305879 0.706205
vt 0.305879 0.714543
vt 0.323309 0.706205
vt 0.323309 0.714543
vt 0.145338 0.706205
vt 0.145338 0.714543
vt 0.394864 0.706205
vt 0.394864 0.714543
vt 0.412294 0.706205
vt 0.412294 0.714543
s 0
usemtl Flame_Chalice_Material
f 7/1/1 6/2/1 14/3/1 15/4/1
f 12/5/2 11/6/2 19/7/2 20/8/2
f 3/9/3 2/10/3 10/11/3 11/6/3
f 6/2/4 5/12/4 13/13/4 14/3/4
f 2/10/5 1/14/5 9/15/5 10/11/5
f 5/16/6 4/17/6 12/5/6 13/18/6
f 1/14/7 8/19/7 16/20/7 9/15/7
f 8/19/8 7/1/8 15/4/8 16/20/8
f 4/17/9 3/9/9 11/6/9 12/5/9
f 15/4/10 14/3/10 22/21/10 23/22/10
f 11/6/11 10/11/11 18/23/11 19/7/11
f 14/3/12 13/13/12 21/24/12 22/21/12
f 10/11/13 9/15/13 17/25/13 18/23/13
f 13/18/14 12/5/14 20/8/14 21/26/14
f 9/15/15 16/20/15 24/27/15 17/25/15
f 16/20/16 15/4/16 23/22/16 24/27/16
f 31/28/17 39/29/17 38/30/17 30/31/17
f 36/32/18 44/33/18 43/34/18 35/35/18
f 27/36/19 35/35/19 34/37/19 26/38/19
f 30/31/20 38/30/20 37/39/20 29/40/20
f 26/38/21 34/37/21 33/41/21 25/42/21
f 29/40/22 37/39/22 36/32/22 28/43/22
f 25/42/23 33/41/23 40/44/23 32/45/23
f 32/45/24 40/44/24 39/29/24 31/28/24
f 28/43/25 36/32/25 35/35/25 27/36/25
f 39/29/26 47/46/26 46/47/26 38/30/26
f 35/35/27 43/34/27 42/48/27 34/37/27
f 38/30/28 46/47/28 45/49/28 37/39/28
f 34/37/29 42/48/29 41/50/29 33/41/29
f 37/39/30 45/49/30 44/33/30 36/32/30
f 33/41/31 41/50/31 48/51/31 40/44/31
f 40/44/32 48/51/32 47/46/32 39/29/32
f 25/52/33 32/53/33 31/54/33 30/55/33 29/56/33 28/57/33 27/58/33 26/59/33
f 18/60/34 17/61/34 41/62/34 42/63/34
f 20/64/35 19/65/35 43/66/35 44/67/35
f 22/68/36 21/69/36 45/70/36 46/71/36
f 24/72/37 23/73/37 47/74/37 48/75/37
f 19/65/38 18/60/38 42/63/38 43/66/38
f 17/61/39 24/72/39 48/75/39 41/62/39
f 23/73/40 22/68/40 46/71/40 47/74/40
f 21/69/41 20/64/41 44/67/41 45/70/41
f 58/76/42 72/77/42 65/78/42 49/79/42
f 62/80/43 70/81/43 71/82/43 57/83/43
f 51/84/44 52/85/44 1/86/44 2/87/44
f 50/88/45 66/89/45 67/90/45 53/91/45
f 54/92/46 68/93/46 69/94/46 61/95/46
f 49/79/47 65/78/47 66/89/47 50/88/47
f 68/93/48 54/92/48 53/91/48 67/90/48
f 70/81/49 62/80/49 61/96/49 69/97/49
f 72/77/50 58/76/50 57/83/50 71/82/50
f 53/98/51 54/99/51 61/100/51 62/101/51 57/102/51 58/103/51 49/104/51 50/105/51
f 52/106/33 51/107/33 66/108/33 65/109/33
f 56/110/33 55/111/33 68/112/33 67/113/33
f 64/114/33 63/115/33 70/116/33 69/117/33
f 60/118/33 59/119/33 72/120/33 71/121/33
f 51/107/33 56/110/33 67/113/33 66/108/33
f 59/119/33 52/106/33 65/109/33 72/120/33
f 63/115/33 60/118/33 71/121/33 70/116/33
f 55/111/33 64/122/33 69/123/33 68/112/33
f 64/124/52 55/125/52 4/126/52 5/127/52
f 52/85/53 59/128/53 8/129/53 1/86/53
f 59/128/54 60/130/54 7/131/54 8/129/54
f 55/125/55 56/132/55 3/133/55 4/126/55
f 60/130/56 63/134/56 6/135/56 7/131/56
f 56/132/57 51/84/57 2/87/57 3/133/57
f 63/134/58 64/136/58 5/137/58 6/135/58
